<svg xmlns="http://www.w3.org/2000/svg" width="40" height="50" viewBox="0 0 120 135">
  <defs><clipPath id="cw"><path d="M60,8 C85,8 105,28 105,55 C105,80 60,130 60,130 C60,130 15,80 15,55 C15,28 35,8 60,8Z"/></clipPath></defs>
  <path d="M60,8 C85,8 105,28 105,55 C105,80 60,130 60,130 C60,130 15,80 15,55 C15,28 35,8 60,8Z" fill="#2d6a4f" stroke="#1b4332" stroke-width="2"/>
  <g clip-path="url(#cw)">
    <!-- Overcast sky -->
    <rect x="15" y="8" width="90" height="50" fill="#7b9ec4" opacity="0.2"/>
    <!-- Rain clouds -->
    <ellipse cx="55" cy="25" rx="25" ry="12" fill="#8899aa" opacity="0.6"/>
    <ellipse cx="75" cy="22" rx="18" ry="10" fill="#8899aa" opacity="0.5"/>
    <!-- Raindrops -->
    <g stroke="#7b9ec4" stroke-width="1.5" stroke-linecap="round" opacity="0.6">
      <line x1="40" y1="38" x2="38" y2="48"/><line x1="55" y1="40" x2="53" y2="50"/>
      <line x1="70" y1="37" x2="68" y2="47"/><line x1="85" y1="39" x2="83" y2="49"/>
      <line x1="48" y1="42" x2="46" y2="50"/><line x1="63" y1="41" x2="61" y2="49"/>
    </g>
    <!-- Mountains -->
    <path d="M10,75 L35,45 L50,58 L70,32 L90,55 L110,75Z" fill="#1b4332"/>
    <path d="M10,80 L30,60 L50,72 L65,55 L85,68 L110,80Z" fill="#2d6a4f" opacity="0.8"/>
    <!-- Wet trail - with puddle effect -->
    <path d="M25,105 Q45,88 60,85 Q78,82 95,88" fill="none" stroke="#b08968" stroke-width="4" stroke-linecap="round"/>
    <!-- Puddles -->
    <ellipse cx="50" cy="90" rx="8" ry="3" fill="#7b9ec4" opacity="0.5"/>
    <ellipse cx="75" cy="86" rx="6" ry="2.5" fill="#7b9ec4" opacity="0.4"/>
  </g>
  <path d="M60,8 C85,8 105,28 105,55 C105,80 60,130 60,130 C60,130 15,80 15,55 C15,28 35,8 60,8Z" fill="none" stroke="#f5f0e8" stroke-width="1.5"/>
</svg>