<svg xmlns="http://www.w3.org/2000/svg" width="120" height="150" viewBox="0 0 120 150">
  <defs><clipPath id="cm"><path d="M60,8 C85,8 105,28 105,55 C105,80 60,130 60,130 C60,130 15,80 15,55 C15,28 35,8 60,8Z"/></clipPath></defs>
  <path d="M60,8 C85,8 105,28 105,55 C105,80 60,130 60,130 C60,130 15,80 15,55 C15,28 35,8 60,8Z" fill="#7f5539" stroke="#5c3a1e" stroke-width="2"/>
  <g clip-path="url(#cm)">
    <!-- Cloudy sky -->
    <rect x="15" y="8" width="90" height="45" fill="#999" opacity="0.15"/>
    <ellipse cx="50" cy="24" rx="22" ry="10" fill="#8899aa" opacity="0.4"/>
    <ellipse cx="72" cy="20" rx="16" ry="8" fill="#8899aa" opacity="0.35"/>
    <!-- Mountains -->
    <path d="M10,72 L35,42 L50,55 L70,30 L90,52 L110,72Z" fill="#5c3a1e"/>
    <path d="M10,78 L30,58 L50,68 L65,52 L85,65 L110,78Z" fill="#7f5539" opacity="0.8"/>
    <!-- Muddy trail - thick, irregular -->
    <path d="M22,108 Q42,90 58,86 Q76,82 98,86" fill="none" stroke="#5c3a1e" stroke-width="6" stroke-linecap="round"/>
    <!-- Mud splatters -->
    <circle cx="38" cy="95" r="4" fill="#5c3a1e" opacity="0.6"/>
    <circle cx="65" cy="82" r="3" fill="#5c3a1e" opacity="0.5"/>
    <circle cx="82" cy="87" r="5" fill="#5c3a1e" opacity="0.5"/>
    <circle cx="50" cy="100" r="3" fill="#5c3a1e" opacity="0.4"/>
    <!-- Boot print in mud -->
    <g transform="translate(60,94) scale(0.3) rotate(-15)">
      <rect x="-12" y="-20" width="24" height="6" rx="3" fill="#3d2215"/>
      <rect x="-12" y="-10" width="24" height="6" rx="3" fill="#3d2215"/>
      <rect x="-12" y="0" width="24" height="6" rx="3" fill="#3d2215"/>
      <rect x="-10" y="10" width="20" height="6" rx="3" fill="#3d2215"/>
    </g>
  </g>
  <path d="M60,8 C85,8 105,28 105,55 C105,80 60,130 60,130 C60,130 15,80 15,55 C15,28 35,8 60,8Z" fill="none" stroke="#f5f0e8" stroke-width="1.5"/>
  <text x="60" y="146" text-anchor="middle" font-family="sans-serif" font-weight="800" font-size="11" fill="#7f5539">MUDDY</text>
</svg>