<svg xmlns="http://www.w3.org/2000/svg" width="512" height="512" viewBox="0 0 512 512">
  <rect width="512" height="512" rx="80" fill="#7f5539"/>
  <!-- Hiking boot print -->
  <g transform="translate(256,240)" fill="#f5f0e8">
    <!-- Sole -->
    <path d="M-60,-160 C-70,-160 -80,-140 -80,-100 L-80,60 C-80,100 -60,140 -30,150 L30,150 C60,140 80,100 80,60 L80,-40 C80,-60 70,-80 50,-90 L50,-130 C50,-150 40,-160 20,-160 Z"/>
    <!-- Tread marks -->
    <rect x="-55" y="-80" width="110" height="12" rx="6" fill="#7f5539"/>
    <rect x="-55" y="-50" width="110" height="12" rx="6" fill="#7f5539"/>
    <rect x="-55" y="-20" width="110" height="12" rx="6" fill="#7f5539"/>
    <rect x="-55" y="10" width="110" height="12" rx="6" fill="#7f5539"/>
    <rect x="-55" y="40" width="110" height="12" rx="6" fill="#7f5539"/>
    <rect x="-50" y="70" width="100" height="12" rx="6" fill="#7f5539"/>
    <rect x="-40" y="100" width="80" height="12" rx="6" fill="#7f5539"/>
    <!-- Heel indent -->
    <rect x="-45" y="120" width="90" height="16" rx="8" fill="#7f5539"/>
  </g>
</svg>