<svg xmlns="http://www.w3.org/2000/svg" width="512" height="512" viewBox="0 0 512 512">
  <defs>
    <clipPath id="pinClip5">
      <path d="M256,55 C342,55 405,118 405,200 C405,300 256,460 256,460 C256,460 107,300 107,200 C107,118 170,55 256,55Z"/>
    </clipPath>
  </defs>
  <!-- Outer condition ring (green = good condition) -->
  <path d="M256,40 C352,40 418,108 418,205 C418,312 256,478 256,478 C256,478 94,312 94,205 C94,108 160,40 256,40Z" 
        fill="#52b788" stroke="none"/>
  <!-- Inner pin body -->
  <path d="M256,55 C342,55 405,118 405,200 C405,300 256,460 256,460 C256,460 107,300 107,200 C107,118 170,55 256,55Z" 
        fill="#2d6a4f" stroke="none"/>
  <g clip-path="url(#pinClip5)">
    <!-- Sky band -->
    <rect x="105" y="55" width="310" height="150" fill="#e9c46a" opacity="0.2"/>
    <!-- Sun -->
    <circle cx="305" cy="112" r="30" fill="#e9c46a" opacity="0.55"/>
    <!-- Mountains - back -->
    <path d="M85,255 L175,150 L225,195 L305,105 L370,175 L420,255Z" fill="#1b4332"/>
    <path d="M305,105 L292,132 L318,132Z" fill="#f5f0e8" opacity="0.7"/>
    <!-- Mountains - front -->
    <path d="M85,275 L155,200 L205,235 L265,170 L335,225 L420,275Z" fill="#2d6a4f"/>
    <path d="M265,170 L254,190 L276,190Z" fill="#f5f0e8" opacity="0.5"/>
    <!-- Trail -->
    <path d="M140,355 Q190,308 220,296 Q265,278 290,264 Q330,246 365,255" 
          fill="none" stroke="#b08968" stroke-width="8" stroke-linecap="round"/>
    <!-- Condition dots on trail -->
    <circle cx="185" cy="310" r="12" fill="#52b788" stroke="#f5f0e8" stroke-width="3"/>
    <circle cx="260" cy="278" r="12" fill="#52b788" stroke="#f5f0e8" stroke-width="3"/>
    <circle cx="340" cy="252" r="12" fill="#e9c46a" stroke="#f5f0e8" stroke-width="3"/>
  </g>
  <!-- Subtle inner shadow line -->
  <path d="M256,55 C342,55 405,118 405,200 C405,300 256,460 256,460 C256,460 107,300 107,200 C107,118 170,55 256,55Z" 
        fill="none" stroke="#f5f0e8" stroke-width="3" opacity="0.4"/>
</svg>